{
    "asset" : {
        "copyright" : "Iuri Cordeiro",
        "generator" : "Khronos glTF Blender I/O v3.4.49",
        "version" : "2.0"
    },
    "scene" : 0,
    "scenes" : [
        {
            "name" : "Scene",
            "nodes" : [
                1
            ]
        }
    ],
    "nodes" : [
        {
            "mesh" : 0,
            "name" : "Onion Leek",
            "scale" : [
                1.1846165657043457,
                1.1846165657043457,
                1.1846165657043457
            ],
            "translation" : [
                0.004715971648693085,
                0.8186816573143005,
                0.0003637030313257128
            ]
        },
        {
            "children" : [
                0
            ],
            "mesh" : 1,
            "name" : "Onion",
            "scale" : [
                0.12948277592658997,
                0.1216573491692543,
                0.12948277592658997
            ]
        }
    ],
    "animations" : [
        {
            "channels" : [
                {
                    "sampler" : 0,
                    "target" : {
                        "node" : 1,
                        "path" : "rotation"
                    }
                }
            ],
            "name" : "OnionAction",
            "samplers" : [
                {
                    "input" : 8,
                    "interpolation" : "LINEAR",
                    "output" : 9
                }
            ]
        },
        {
            "channels" : [
                {
                    "sampler" : 0,
                    "target" : {
                        "node" : 0,
                        "path" : "translation"
                    }
                },
                {
                    "sampler" : 1,
                    "target" : {
                        "node" : 0,
                        "path" : "rotation"
                    }
                },
                {
                    "sampler" : 2,
                    "target" : {
                        "node" : 0,
                        "path" : "scale"
                    }
                }
            ],
            "name" : "Onion Leek",
            "samplers" : [
                {
                    "input" : 8,
                    "interpolation" : "LINEAR",
                    "output" : 10
                },
                {
                    "input" : 8,
                    "interpolation" : "LINEAR",
                    "output" : 11
                },
                {
                    "input" : 8,
                    "interpolation" : "LINEAR",
                    "output" : 12
                }
            ]
        }
    ],
    "materials" : [
        {
            "doubleSided" : true,
            "name" : "Material",
            "pbrMetallicRoughness" : {
                "baseColorFactor" : [
                    0.019382359459996223,
                    0.16826944053173065,
                    0.006048833951354027,
                    1
                ],
                "metallicFactor" : 0,
                "roughnessFactor" : 0.4000000059604645
            }
        },
        {
            "doubleSided" : true,
            "name" : "Material.001",
            "pbrMetallicRoughness" : {
                "baseColorFactor" : [
                    0.2501582205295563,
                    0.0822354108095169,
                    0.03972267732024193,
                    1
                ],
                "metallicFactor" : 0,
                "roughnessFactor" : 0.4000000059604645
            }
        }
    ],
    "meshes" : [
        {
            "name" : "Sphere.001",
            "primitives" : [
                {
                    "attributes" : {
                        "POSITION" : 0,
                        "TEXCOORD_0" : 1,
                        "NORMAL" : 2
                    },
                    "indices" : 3,
                    "material" : 0
                }
            ]
        },
        {
            "name" : "Sphere",
            "primitives" : [
                {
                    "attributes" : {
                        "POSITION" : 4,
                        "TEXCOORD_0" : 5,
                        "NORMAL" : 6
                    },
                    "indices" : 7,
                    "material" : 1
                }
            ]
        }
    ],
    "accessors" : [
        {
            "bufferView" : 0,
            "componentType" : 5126,
            "count" : 4930,
            "max" : [
                0.6724017262458801,
                3.155383348464966,
                0.6080372929573059
            ],
            "min" : [
                -0.7464591264724731,
                1.0031156539916992,
                -0.7130191326141357
            ],
            "type" : "VEC3"
        },
        {
            "bufferView" : 1,
            "componentType" : 5126,
            "count" : 4930,
            "type" : "VEC2"
        },
        {
            "bufferView" : 2,
            "componentType" : 5126,
            "count" : 4930,
            "type" : "VEC3"
        },
        {
            "bufferView" : 3,
            "componentType" : 5123,
            "count" : 22992,
            "type" : "SCALAR"
        },
        {
            "bufferView" : 4,
            "componentType" : 5126,
            "count" : 1419,
            "max" : [
                0.9492228031158447,
                2.0205819606781006,
                0.9492228031158447
            ],
            "min" : [
                -0.9492228031158447,
                0.013735330663621426,
                -0.9492228031158447
            ],
            "type" : "VEC3"
        },
        {
            "bufferView" : 5,
            "componentType" : 5126,
            "count" : 1419,
            "type" : "VEC2"
        },
        {
            "bufferView" : 6,
            "componentType" : 5126,
            "count" : 1419,
            "type" : "VEC3"
        },
        {
            "bufferView" : 7,
            "componentType" : 5123,
            "count" : 7128,
            "type" : "SCALAR"
        },
        {
            "bufferView" : 8,
            "componentType" : 5126,
            "count" : 91,
            "max" : [
                3
            ],
            "min" : [
                0
            ],
            "type" : "SCALAR"
        },
        {
            "bufferView" : 9,
            "componentType" : 5126,
            "count" : 91,
            "type" : "VEC4"
        },
        {
            "bufferView" : 10,
            "componentType" : 5126,
            "count" : 91,
            "type" : "VEC3"
        },
        {
            "bufferView" : 11,
            "componentType" : 5126,
            "count" : 91,
            "type" : "VEC4"
        },
        {
            "bufferView" : 12,
            "componentType" : 5126,
            "count" : 91,
            "type" : "VEC3"
        }
    ],
    "bufferViews" : [
        {
            "buffer" : 0,
            "byteLength" : 59160,
            "byteOffset" : 0,
            "target" : 34962
        },
        {
            "buffer" : 0,
            "byteLength" : 39440,
            "byteOffset" : 59160,
            "target" : 34962
        },
        {
            "buffer" : 0,
            "byteLength" : 59160,
            "byteOffset" : 98600,
            "target" : 34962
        },
        {
            "buffer" : 0,
            "byteLength" : 45984,
            "byteOffset" : 157760,
            "target" : 34963
        },
        {
            "buffer" : 0,
            "byteLength" : 17028,
            "byteOffset" : 203744,
            "target" : 34962
        },
        {
            "buffer" : 0,
            "byteLength" : 11352,
            "byteOffset" : 220772,
            "target" : 34962
        },
        {
            "buffer" : 0,
            "byteLength" : 17028,
            "byteOffset" : 232124,
            "target" : 34962
        },
        {
            "buffer" : 0,
            "byteLength" : 14256,
            "byteOffset" : 249152,
            "target" : 34963
        },
        {
            "buffer" : 0,
            "byteLength" : 364,
            "byteOffset" : 263408
        },
        {
            "buffer" : 0,
            "byteLength" : 1456,
            "byteOffset" : 263772
        },
        {
            "buffer" : 0,
            "byteLength" : 1092,
            "byteOffset" : 265228
        },
        {
            "buffer" : 0,
            "byteLength" : 1456,
            "byteOffset" : 266320
        },
        {
            "buffer" : 0,
            "byteLength" : 1092,
            "byteOffset" : 267776
        }
    ],
    "buffers" : [
        {
            "byteLength" : 268868,
            "uri" : "Cebola.bin"
        }
    ]
}
