{
    "asset" : {
        "copyright" : "Iuri Cordeiro",
        "generator" : "Khronos glTF Blender I/O v3.4.49",
        "version" : "2.0"
    },
    "scene" : 0,
    "scenes" : [
        {
            "name" : "Scene",
            "nodes" : [
                1
            ]
        }
    ],
    "nodes" : [
        {
            "mesh" : 0,
            "name" : "Roundcube.001",
            "rotation" : [
                -0.19444209337234497,
                -0.5990134477615356,
                0.25465619564056396,
                0.7338429689407349
            ],
            "scale" : [
                21.941991806030273,
                20.329423904418945,
                23.752994537353516
            ],
            "translation" : [
                -0.3228098452091217,
                4.241440773010254,
                -0.03648998960852623
            ]
        },
        {
            "children" : [
                0
            ],
            "mesh" : 1,
            "name" : "Circle",
            "rotation" : [
                -0.032584212720394135,
                0.0006227596895769238,
                -0.019098669290542603,
                0.9992862939834595
            ],
            "scale" : [
                0.042043209075927734,
                0.05526045709848404,
                0.042042676359415054
            ],
            "translation" : [
                0.00015272945165634155,
                0.008919548243284225,
                -0.03822895884513855
            ]
        }
    ],
    "animations" : [
        {
            "channels" : [
                {
                    "sampler" : 0,
                    "target" : {
                        "node" : 1,
                        "path" : "rotation"
                    }
                }
            ],
            "name" : "CircleAction",
            "samplers" : [
                {
                    "input" : 7,
                    "interpolation" : "LINEAR",
                    "output" : 8
                }
            ]
        },
        {
            "channels" : [
                {
                    "sampler" : 0,
                    "target" : {
                        "node" : 0,
                        "path" : "translation"
                    }
                },
                {
                    "sampler" : 1,
                    "target" : {
                        "node" : 0,
                        "path" : "rotation"
                    }
                },
                {
                    "sampler" : 2,
                    "target" : {
                        "node" : 0,
                        "path" : "scale"
                    }
                }
            ],
            "name" : "Roundcube.001",
            "samplers" : [
                {
                    "input" : 7,
                    "interpolation" : "LINEAR",
                    "output" : 9
                },
                {
                    "input" : 7,
                    "interpolation" : "LINEAR",
                    "output" : 10
                },
                {
                    "input" : 7,
                    "interpolation" : "LINEAR",
                    "output" : 11
                }
            ]
        }
    ],
    "materials" : [
        {
            "doubleSided" : true,
            "name" : "Material",
            "pbrMetallicRoughness" : {
                "baseColorFactor" : [
                    0.010710086673498154,
                    0.1042417660355568,
                    0,
                    1
                ],
                "metallicFactor" : 0,
                "roughnessFactor" : 0.5
            }
        },
        {
            "doubleSided" : true,
            "name" : "Material.001",
            "pbrMetallicRoughness" : {
                "baseColorFactor" : [
                    0.023773210123181343,
                    0.2638159990310669,
                    0.0076546091586351395,
                    1
                ],
                "metallicFactor" : 0,
                "roughnessFactor" : 0.5
            }
        }
    ],
    "meshes" : [
        {
            "name" : "Roundcube.001",
            "primitives" : [
                {
                    "attributes" : {
                        "POSITION" : 0,
                        "NORMAL" : 1
                    },
                    "indices" : 2,
                    "material" : 0
                }
            ]
        },
        {
            "name" : "Circle",
            "primitives" : [
                {
                    "attributes" : {
                        "POSITION" : 3,
                        "TEXCOORD_0" : 4,
                        "NORMAL" : 5
                    },
                    "indices" : 6,
                    "material" : 1
                }
            ]
        }
    ],
    "accessors" : [
        {
            "bufferView" : 0,
            "componentType" : 5126,
            "count" : 2548,
            "max" : [
                0.22392965853214264,
                0.19811369478702545,
                0.16357561945915222
            ],
            "min" : [
                -0.08017837256193161,
                -0.05581744387745857,
                -0.19808679819107056
            ],
            "type" : "VEC3"
        },
        {
            "bufferView" : 1,
            "componentType" : 5126,
            "count" : 2548,
            "type" : "VEC3"
        },
        {
            "bufferView" : 2,
            "componentType" : 5123,
            "count" : 14976,
            "type" : "SCALAR"
        },
        {
            "bufferView" : 3,
            "componentType" : 5126,
            "count" : 7802,
            "max" : [
                1.6281514167785645,
                5.932933807373047,
                1.4463777542114258
            ],
            "min" : [
                -1.373024344444275,
                -0.14417564868927002,
                -1.6360098123550415
            ],
            "type" : "VEC3"
        },
        {
            "bufferView" : 4,
            "componentType" : 5126,
            "count" : 7802,
            "type" : "VEC2"
        },
        {
            "bufferView" : 5,
            "componentType" : 5126,
            "count" : 7802,
            "type" : "VEC3"
        },
        {
            "bufferView" : 6,
            "componentType" : 5123,
            "count" : 46800,
            "type" : "SCALAR"
        },
        {
            "bufferView" : 7,
            "componentType" : 5126,
            "count" : 90,
            "max" : [
                3
            ],
            "min" : [
                0.03333333333333333
            ],
            "type" : "SCALAR"
        },
        {
            "bufferView" : 8,
            "componentType" : 5126,
            "count" : 90,
            "type" : "VEC4"
        },
        {
            "bufferView" : 9,
            "componentType" : 5126,
            "count" : 90,
            "type" : "VEC3"
        },
        {
            "bufferView" : 10,
            "componentType" : 5126,
            "count" : 90,
            "type" : "VEC4"
        },
        {
            "bufferView" : 11,
            "componentType" : 5126,
            "count" : 90,
            "type" : "VEC3"
        }
    ],
    "bufferViews" : [
        {
            "buffer" : 0,
            "byteLength" : 30576,
            "byteOffset" : 0,
            "target" : 34962
        },
        {
            "buffer" : 0,
            "byteLength" : 30576,
            "byteOffset" : 30576,
            "target" : 34962
        },
        {
            "buffer" : 0,
            "byteLength" : 29952,
            "byteOffset" : 61152,
            "target" : 34963
        },
        {
            "buffer" : 0,
            "byteLength" : 93624,
            "byteOffset" : 91104,
            "target" : 34962
        },
        {
            "buffer" : 0,
            "byteLength" : 62416,
            "byteOffset" : 184728,
            "target" : 34962
        },
        {
            "buffer" : 0,
            "byteLength" : 93624,
            "byteOffset" : 247144,
            "target" : 34962
        },
        {
            "buffer" : 0,
            "byteLength" : 93600,
            "byteOffset" : 340768,
            "target" : 34963
        },
        {
            "buffer" : 0,
            "byteLength" : 360,
            "byteOffset" : 434368
        },
        {
            "buffer" : 0,
            "byteLength" : 1440,
            "byteOffset" : 434728
        },
        {
            "buffer" : 0,
            "byteLength" : 1080,
            "byteOffset" : 436168
        },
        {
            "buffer" : 0,
            "byteLength" : 1440,
            "byteOffset" : 437248
        },
        {
            "buffer" : 0,
            "byteLength" : 1080,
            "byteOffset" : 438688
        }
    ],
    "buffers" : [
        {
            "byteLength" : 439768,
            "uri" : "Br\u00f3colis.bin"
        }
    ]
}
