{
    "asset" : {
        "copyright" : "Iuri F. Cordeiro",
        "generator" : "Khronos glTF Blender I/O v3.4.50",
        "version" : "2.0"
    },
    "extensionsUsed" : [
        "KHR_materials_specular",
        "KHR_materials_ior"
    ],
    "scene" : 0,
    "scenes" : [
        {
            "name" : "Scene",
            "nodes" : [
                0
            ]
        }
    ],
    "nodes" : [
        {
            "mesh" : 0,
            "name" : "Ponte",
            "scale" : [
                0.05578777566552162,
                0.27237242460250854,
                0.0432601273059845
            ],
            "translation" : [
                -0.0010888036340475082,
                0.9417949914932251,
                -0.7761819958686829
            ]
        }
    ],
    "animations" : [
        {
            "channels" : [
                {
                    "sampler" : 0,
                    "target" : {
                        "node" : 0,
                        "path" : "translation"
                    }
                },
                {
                    "sampler" : 1,
                    "target" : {
                        "node" : 0,
                        "path" : "rotation"
                    }
                },
                {
                    "sampler" : 2,
                    "target" : {
                        "node" : 0,
                        "path" : "scale"
                    }
                }
            ],
            "name" : "Ponte",
            "samplers" : [
                {
                    "input" : 4,
                    "interpolation" : "LINEAR",
                    "output" : 5
                },
                {
                    "input" : 4,
                    "interpolation" : "LINEAR",
                    "output" : 6
                },
                {
                    "input" : 4,
                    "interpolation" : "LINEAR",
                    "output" : 7
                }
            ]
        }
    ],
    "materials" : [
        {
            "doubleSided" : true,
            "extensions" : {
                "KHR_materials_specular" : {
                    "specularColorFactor" : [
                        0.2602709921567213,
                        0.2602709921567213,
                        0.2602709921567213
                    ]
                },
                "KHR_materials_ior" : {
                    "ior" : 1.4500000476837158
                }
            },
            "name" : "Madeira_Piso",
            "pbrMetallicRoughness" : {
                "baseColorTexture" : {
                    "index" : 0
                },
                "metallicFactor" : 0,
                "roughnessFactor" : 0.6499999761581421
            }
        }
    ],
    "meshes" : [
        {
            "name" : "Cube.010",
            "primitives" : [
                {
                    "attributes" : {
                        "POSITION" : 0,
                        "TEXCOORD_0" : 1,
                        "NORMAL" : 2
                    },
                    "indices" : 3,
                    "material" : 0
                }
            ]
        }
    ],
    "textures" : [
        {
            "sampler" : 0,
            "source" : 0
        }
    ],
    "images" : [
        {
            "mimeType" : "image/jpeg",
            "name" : "./wooden-natural-floor-decoration-concept.jpg",
            "uri" : "./wooden-natural-floor-decoration-concept.jpg"
        }
    ],
    "accessors" : [
        {
            "bufferView" : 0,
            "componentType" : 5126,
            "count" : 3016,
            "max" : [
                45.10987854003906,
                2.7835333347320557,
                36.8939208984375
            ],
            "min" : [
                -45.10539245605469,
                -3.4851677417755127,
                -1.2592337131500244
            ],
            "type" : "VEC3"
        },
        {
            "bufferView" : 1,
            "componentType" : 5126,
            "count" : 3016,
            "type" : "VEC2"
        },
        {
            "bufferView" : 2,
            "componentType" : 5126,
            "count" : 3016,
            "type" : "VEC3"
        },
        {
            "bufferView" : 3,
            "componentType" : 5123,
            "count" : 5316,
            "type" : "SCALAR"
        },
        {
            "bufferView" : 4,
            "componentType" : 5126,
            "count" : 750,
            "max" : [
                31.25
            ],
            "min" : [
                0.041666666666666664
            ],
            "type" : "SCALAR"
        },
        {
            "bufferView" : 5,
            "componentType" : 5126,
            "count" : 750,
            "type" : "VEC3"
        },
        {
            "bufferView" : 6,
            "componentType" : 5126,
            "count" : 750,
            "type" : "VEC4"
        },
        {
            "bufferView" : 7,
            "componentType" : 5126,
            "count" : 750,
            "type" : "VEC3"
        }
    ],
    "bufferViews" : [
        {
            "buffer" : 0,
            "byteLength" : 36192,
            "byteOffset" : 0,
            "target" : 34962
        },
        {
            "buffer" : 0,
            "byteLength" : 24128,
            "byteOffset" : 36192,
            "target" : 34962
        },
        {
            "buffer" : 0,
            "byteLength" : 36192,
            "byteOffset" : 60320,
            "target" : 34962
        },
        {
            "buffer" : 0,
            "byteLength" : 10632,
            "byteOffset" : 96512,
            "target" : 34963
        },
        {
            "buffer" : 0,
            "byteLength" : 3000,
            "byteOffset" : 107144
        },
        {
            "buffer" : 0,
            "byteLength" : 9000,
            "byteOffset" : 110144
        },
        {
            "buffer" : 0,
            "byteLength" : 12000,
            "byteOffset" : 119144
        },
        {
            "buffer" : 0,
            "byteLength" : 9000,
            "byteOffset" : 131144
        }
    ],
    "samplers" : [
        {
            "magFilter" : 9729,
            "minFilter" : 9987
        }
    ],
    "buffers" : [
        {
            "byteLength" : 140144,
            "uri" : "Bridge.bin"
        }
    ]
}
