{
    "asset" : {
        "copyright" : "Iuri F. Cordeiro",
        "generator" : "Khronos glTF Blender I/O v3.4.50",
        "version" : "2.0"
    },
    "extensionsUsed" : [
        "KHR_materials_specular",
        "KHR_materials_ior"
    ],
    "scene" : 0,
    "scenes" : [
        {
            "name" : "Scene",
            "nodes" : [
                3
            ]
        }
    ],
    "nodes" : [
        {
            "mesh" : 0,
            "name" : "Bau-Detalhe",
            "rotation" : [
                0,
                0,
                -0.7071067094802856,
                0.7071068286895752
            ],
            "scale" : [
                0.526737630367279,
                0.4158766567707062,
                0.8376463651657104
            ],
            "translation" : [
                0.9696168899536133,
                0,
                0
            ]
        },
        {
            "mesh" : 1,
            "name" : "Bau-Fechadura",
            "rotation" : [
                0,
                0,
                -0.7071067094802856,
                0.70710688829422
            ],
            "scale" : [
                0.3839835226535797,
                0.19156643748283386,
                0.175824373960495
            ],
            "translation" : [
                0.9594769477844238,
                0,
                0
            ]
        },
        {
            "mesh" : 2,
            "name" : "Bau-Tampa",
            "translation" : [
                -1.0467519760131836,
                0.999998927116394,
                -0.021435022354125977
            ]
        },
        {
            "children" : [
                0,
                1,
                2
            ],
            "mesh" : 3,
            "name" : "Bau",
            "scale" : [
                0.5764906406402588,
                0.287606805562973,
                0.6281055212020874
            ],
            "translation" : [
                -4.97886323928833,
                0.3350927531719208,
                -1.6856772899627686
            ]
        }
    ],
    "animations" : [
        {
            "channels" : [
                {
                    "sampler" : 0,
                    "target" : {
                        "node" : 3,
                        "path" : "translation"
                    }
                },
                {
                    "sampler" : 1,
                    "target" : {
                        "node" : 3,
                        "path" : "rotation"
                    }
                },
                {
                    "sampler" : 2,
                    "target" : {
                        "node" : 3,
                        "path" : "scale"
                    }
                }
            ],
            "name" : "Bau",
            "samplers" : [
                {
                    "input" : 24,
                    "interpolation" : "LINEAR",
                    "output" : 25
                },
                {
                    "input" : 24,
                    "interpolation" : "LINEAR",
                    "output" : 26
                },
                {
                    "input" : 24,
                    "interpolation" : "LINEAR",
                    "output" : 27
                }
            ]
        },
        {
            "channels" : [
                {
                    "sampler" : 0,
                    "target" : {
                        "node" : 0,
                        "path" : "translation"
                    }
                },
                {
                    "sampler" : 1,
                    "target" : {
                        "node" : 0,
                        "path" : "rotation"
                    }
                },
                {
                    "sampler" : 2,
                    "target" : {
                        "node" : 0,
                        "path" : "scale"
                    }
                }
            ],
            "name" : "Bau-Detalhe",
            "samplers" : [
                {
                    "input" : 24,
                    "interpolation" : "LINEAR",
                    "output" : 28
                },
                {
                    "input" : 24,
                    "interpolation" : "LINEAR",
                    "output" : 29
                },
                {
                    "input" : 24,
                    "interpolation" : "LINEAR",
                    "output" : 30
                }
            ]
        },
        {
            "channels" : [
                {
                    "sampler" : 0,
                    "target" : {
                        "node" : 1,
                        "path" : "translation"
                    }
                },
                {
                    "sampler" : 1,
                    "target" : {
                        "node" : 1,
                        "path" : "rotation"
                    }
                },
                {
                    "sampler" : 2,
                    "target" : {
                        "node" : 1,
                        "path" : "scale"
                    }
                }
            ],
            "name" : "Bau-Fechadura",
            "samplers" : [
                {
                    "input" : 24,
                    "interpolation" : "LINEAR",
                    "output" : 31
                },
                {
                    "input" : 24,
                    "interpolation" : "LINEAR",
                    "output" : 32
                },
                {
                    "input" : 24,
                    "interpolation" : "LINEAR",
                    "output" : 33
                }
            ]
        },
        {
            "channels" : [
                {
                    "sampler" : 0,
                    "target" : {
                        "node" : 2,
                        "path" : "rotation"
                    }
                }
            ],
            "name" : "Bau-TampaAction",
            "samplers" : [
                {
                    "input" : 34,
                    "interpolation" : "LINEAR",
                    "output" : 35
                }
            ]
        }
    ],
    "materials" : [
        {
            "doubleSided" : true,
            "name" : "BauTex_Ferro",
            "pbrMetallicRoughness" : {
                "roughnessFactor" : 0.5
            }
        },
        {
            "doubleSided" : true,
            "name" : "Ouro",
            "pbrMetallicRoughness" : {
                "baseColorFactor" : [
                    0.07818897068500519,
                    0.055469971150159836,
                    0,
                    1
                ],
                "roughnessFactor" : 0.30000001192092896
            }
        },
        {
            "doubleSided" : true,
            "extensions" : {
                "KHR_materials_specular" : {
                    "specularColorFactor" : [
                        0.474271529955476,
                        0.474271529955476,
                        0.474271529955476
                    ]
                },
                "KHR_materials_ior" : {
                    "ior" : 1.4500000476837158
                }
            },
            "name" : "BauTex",
            "pbrMetallicRoughness" : {
                "metallicFactor" : 0,
                "roughnessFactor" : 0.5
            }
        }
    ],
    "meshes" : [
        {
            "name" : "Plane.002",
            "primitives" : [
                {
                    "attributes" : {
                        "POSITION" : 0,
                        "TEXCOORD_0" : 1,
                        "NORMAL" : 2
                    },
                    "indices" : 3,
                    "material" : 0
                }
            ]
        },
        {
            "name" : "Circle",
            "primitives" : [
                {
                    "attributes" : {
                        "POSITION" : 4,
                        "TEXCOORD_0" : 5,
                        "NORMAL" : 6
                    },
                    "indices" : 7,
                    "material" : 1
                }
            ]
        },
        {
            "name" : "Cube.004",
            "primitives" : [
                {
                    "attributes" : {
                        "POSITION" : 8,
                        "TEXCOORD_0" : 9,
                        "NORMAL" : 10
                    },
                    "indices" : 11,
                    "material" : 2
                },
                {
                    "attributes" : {
                        "POSITION" : 12,
                        "TEXCOORD_0" : 13,
                        "NORMAL" : 14
                    },
                    "indices" : 15,
                    "material" : 0
                }
            ]
        },
        {
            "name" : "Cube.003",
            "primitives" : [
                {
                    "attributes" : {
                        "POSITION" : 16,
                        "TEXCOORD_0" : 17,
                        "NORMAL" : 18
                    },
                    "indices" : 19,
                    "material" : 2
                },
                {
                    "attributes" : {
                        "POSITION" : 20,
                        "TEXCOORD_0" : 21,
                        "NORMAL" : 22
                    },
                    "indices" : 23,
                    "material" : 0
                }
            ]
        }
    ],
    "accessors" : [
        {
            "bufferView" : 0,
            "componentType" : 5126,
            "count" : 4,
            "max" : [
                1,
                0,
                1
            ],
            "min" : [
                -1,
                0,
                -1
            ],
            "type" : "VEC3"
        },
        {
            "bufferView" : 1,
            "componentType" : 5126,
            "count" : 4,
            "type" : "VEC2"
        },
        {
            "bufferView" : 2,
            "componentType" : 5126,
            "count" : 4,
            "type" : "VEC3"
        },
        {
            "bufferView" : 3,
            "componentType" : 5123,
            "count" : 6,
            "type" : "SCALAR"
        },
        {
            "bufferView" : 4,
            "componentType" : 5126,
            "count" : 288,
            "max" : [
                1.0535430908203125,
                0.5395431518554688,
                1.0535430908203125
            ],
            "min" : [
                -1.0535430908203125,
                0.01915959268808365,
                -1.0535430908203125
            ],
            "type" : "VEC3"
        },
        {
            "bufferView" : 5,
            "componentType" : 5126,
            "count" : 288,
            "type" : "VEC2"
        },
        {
            "bufferView" : 6,
            "componentType" : 5126,
            "count" : 288,
            "type" : "VEC3"
        },
        {
            "bufferView" : 7,
            "componentType" : 5123,
            "count" : 1536,
            "type" : "SCALAR"
        },
        {
            "bufferView" : 8,
            "componentType" : 5126,
            "count" : 70,
            "max" : [
                2.0384931564331055,
                2.0447006225585938,
                1.147733211517334
            ],
            "min" : [
                1.1920928955078125e-07,
                2.384185791015625e-07,
                -1.1477328538894653
            ],
            "type" : "VEC3"
        },
        {
            "bufferView" : 9,
            "componentType" : 5126,
            "count" : 70,
            "type" : "VEC2"
        },
        {
            "bufferView" : 10,
            "componentType" : 5126,
            "count" : 70,
            "type" : "VEC3"
        },
        {
            "bufferView" : 11,
            "componentType" : 5123,
            "count" : 192,
            "type" : "SCALAR"
        },
        {
            "bufferView" : 12,
            "componentType" : 5126,
            "count" : 108,
            "max" : [
                2.044269561767578,
                2.0447006225585938,
                1.147733211517334
            ],
            "min" : [
                1.1920928955078125e-07,
                -5.960464477539063e-08,
                -1.1477328538894653
            ],
            "type" : "VEC3"
        },
        {
            "bufferView" : 13,
            "componentType" : 5126,
            "count" : 108,
            "type" : "VEC2"
        },
        {
            "bufferView" : 14,
            "componentType" : 5126,
            "count" : 108,
            "type" : "VEC3"
        },
        {
            "bufferView" : 15,
            "componentType" : 5123,
            "count" : 426,
            "type" : "SCALAR"
        },
        {
            "bufferView" : 16,
            "componentType" : 5126,
            "count" : 249,
            "max" : [
                1,
                0.9999999403953552,
                1.1268984079360962
            ],
            "min" : [
                -1.0537128448486328,
                -1,
                -1.169350028038025
            ],
            "type" : "VEC3"
        },
        {
            "bufferView" : 17,
            "componentType" : 5126,
            "count" : 249,
            "type" : "VEC2"
        },
        {
            "bufferView" : 18,
            "componentType" : 5126,
            "count" : 249,
            "type" : "VEC3"
        },
        {
            "bufferView" : 19,
            "componentType" : 5123,
            "count" : 522,
            "type" : "SCALAR"
        },
        {
            "bufferView" : 20,
            "componentType" : 5126,
            "count" : 207,
            "max" : [
                1,
                1,
                1.1268984079360962
            ],
            "min" : [
                -1.0537128448486328,
                -1,
                -1.169350028038025
            ],
            "type" : "VEC3"
        },
        {
            "bufferView" : 21,
            "componentType" : 5126,
            "count" : 207,
            "type" : "VEC2"
        },
        {
            "bufferView" : 22,
            "componentType" : 5126,
            "count" : 207,
            "type" : "VEC3"
        },
        {
            "bufferView" : 23,
            "componentType" : 5123,
            "count" : 450,
            "type" : "SCALAR"
        },
        {
            "bufferView" : 24,
            "componentType" : 5126,
            "count" : 750,
            "max" : [
                31.25
            ],
            "min" : [
                0.041666666666666664
            ],
            "type" : "SCALAR"
        },
        {
            "bufferView" : 25,
            "componentType" : 5126,
            "count" : 750,
            "type" : "VEC3"
        },
        {
            "bufferView" : 26,
            "componentType" : 5126,
            "count" : 750,
            "type" : "VEC4"
        },
        {
            "bufferView" : 27,
            "componentType" : 5126,
            "count" : 750,
            "type" : "VEC3"
        },
        {
            "bufferView" : 28,
            "componentType" : 5126,
            "count" : 750,
            "type" : "VEC3"
        },
        {
            "bufferView" : 29,
            "componentType" : 5126,
            "count" : 750,
            "type" : "VEC4"
        },
        {
            "bufferView" : 30,
            "componentType" : 5126,
            "count" : 750,
            "type" : "VEC3"
        },
        {
            "bufferView" : 31,
            "componentType" : 5126,
            "count" : 750,
            "type" : "VEC3"
        },
        {
            "bufferView" : 32,
            "componentType" : 5126,
            "count" : 750,
            "type" : "VEC4"
        },
        {
            "bufferView" : 33,
            "componentType" : 5126,
            "count" : 750,
            "type" : "VEC3"
        },
        {
            "bufferView" : 34,
            "componentType" : 5126,
            "count" : 50,
            "max" : [
                2.0833333333333335
            ],
            "min" : [
                0.041666666666666664
            ],
            "type" : "SCALAR"
        },
        {
            "bufferView" : 35,
            "componentType" : 5126,
            "count" : 50,
            "type" : "VEC4"
        }
    ],
    "bufferViews" : [
        {
            "buffer" : 0,
            "byteLength" : 48,
            "byteOffset" : 0,
            "target" : 34962
        },
        {
            "buffer" : 0,
            "byteLength" : 32,
            "byteOffset" : 48,
            "target" : 34962
        },
        {
            "buffer" : 0,
            "byteLength" : 48,
            "byteOffset" : 80,
            "target" : 34962
        },
        {
            "buffer" : 0,
            "byteLength" : 12,
            "byteOffset" : 128,
            "target" : 34963
        },
        {
            "buffer" : 0,
            "byteLength" : 3456,
            "byteOffset" : 140,
            "target" : 34962
        },
        {
            "buffer" : 0,
            "byteLength" : 2304,
            "byteOffset" : 3596,
            "target" : 34962
        },
        {
            "buffer" : 0,
            "byteLength" : 3456,
            "byteOffset" : 5900,
            "target" : 34962
        },
        {
            "buffer" : 0,
            "byteLength" : 3072,
            "byteOffset" : 9356,
            "target" : 34963
        },
        {
            "buffer" : 0,
            "byteLength" : 840,
            "byteOffset" : 12428,
            "target" : 34962
        },
        {
            "buffer" : 0,
            "byteLength" : 560,
            "byteOffset" : 13268,
            "target" : 34962
        },
        {
            "buffer" : 0,
            "byteLength" : 840,
            "byteOffset" : 13828,
            "target" : 34962
        },
        {
            "buffer" : 0,
            "byteLength" : 384,
            "byteOffset" : 14668,
            "target" : 34963
        },
        {
            "buffer" : 0,
            "byteLength" : 1296,
            "byteOffset" : 15052,
            "target" : 34962
        },
        {
            "buffer" : 0,
            "byteLength" : 864,
            "byteOffset" : 16348,
            "target" : 34962
        },
        {
            "buffer" : 0,
            "byteLength" : 1296,
            "byteOffset" : 17212,
            "target" : 34962
        },
        {
            "buffer" : 0,
            "byteLength" : 852,
            "byteOffset" : 18508,
            "target" : 34963
        },
        {
            "buffer" : 0,
            "byteLength" : 2988,
            "byteOffset" : 19360,
            "target" : 34962
        },
        {
            "buffer" : 0,
            "byteLength" : 1992,
            "byteOffset" : 22348,
            "target" : 34962
        },
        {
            "buffer" : 0,
            "byteLength" : 2988,
            "byteOffset" : 24340,
            "target" : 34962
        },
        {
            "buffer" : 0,
            "byteLength" : 1044,
            "byteOffset" : 27328,
            "target" : 34963
        },
        {
            "buffer" : 0,
            "byteLength" : 2484,
            "byteOffset" : 28372,
            "target" : 34962
        },
        {
            "buffer" : 0,
            "byteLength" : 1656,
            "byteOffset" : 30856,
            "target" : 34962
        },
        {
            "buffer" : 0,
            "byteLength" : 2484,
            "byteOffset" : 32512,
            "target" : 34962
        },
        {
            "buffer" : 0,
            "byteLength" : 900,
            "byteOffset" : 34996,
            "target" : 34963
        },
        {
            "buffer" : 0,
            "byteLength" : 3000,
            "byteOffset" : 35896
        },
        {
            "buffer" : 0,
            "byteLength" : 9000,
            "byteOffset" : 38896
        },
        {
            "buffer" : 0,
            "byteLength" : 12000,
            "byteOffset" : 47896
        },
        {
            "buffer" : 0,
            "byteLength" : 9000,
            "byteOffset" : 59896
        },
        {
            "buffer" : 0,
            "byteLength" : 9000,
            "byteOffset" : 68896
        },
        {
            "buffer" : 0,
            "byteLength" : 12000,
            "byteOffset" : 77896
        },
        {
            "buffer" : 0,
            "byteLength" : 9000,
            "byteOffset" : 89896
        },
        {
            "buffer" : 0,
            "byteLength" : 9000,
            "byteOffset" : 98896
        },
        {
            "buffer" : 0,
            "byteLength" : 12000,
            "byteOffset" : 107896
        },
        {
            "buffer" : 0,
            "byteLength" : 9000,
            "byteOffset" : 119896
        },
        {
            "buffer" : 0,
            "byteLength" : 200,
            "byteOffset" : 128896
        },
        {
            "buffer" : 0,
            "byteLength" : 800,
            "byteOffset" : 129096
        }
    ],
    "buffers" : [
        {
            "byteLength" : 129896,
            "uri" : "Chest.bin"
        }
    ]
}
