{
    "asset" : {
        "copyright" : "Iuri F. Cordeiro",
        "generator" : "Khronos glTF Blender I/O v3.4.50",
        "version" : "2.0"
    },
    "scene" : 0,
    "scenes" : [
        {
            "name" : "Scene",
            "nodes" : [
                0
            ]
        }
    ],
    "nodes" : [
        {
            "mesh" : 0,
            "name" : "Pessoa",
            "scale" : [
                0.09999999403953552,
                0.5,
                0.07941355556249619
            ],
            "translation" : [
                -4.229950428009033,
                2.245041608810425,
                -3.531594753265381
            ]
        }
    ],
    "meshes" : [
        {
            "name" : "Cube.001",
            "primitives" : [
                {
                    "attributes" : {
                        "POSITION" : 0,
                        "TEXCOORD_0" : 1,
                        "NORMAL" : 2
                    },
                    "indices" : 3
                }
            ]
        }
    ],
    "accessors" : [
        {
            "bufferView" : 0,
            "componentType" : 5126,
            "count" : 1111,
            "max" : [
                99.07937622070312,
                3.217747211456299,
                87.90204620361328
            ],
            "min" : [
                88.50408172607422,
                -4.468220233917236,
                45.915863037109375
            ],
            "type" : "VEC3"
        },
        {
            "bufferView" : 1,
            "componentType" : 5126,
            "count" : 1111,
            "type" : "VEC2"
        },
        {
            "bufferView" : 2,
            "componentType" : 5126,
            "count" : 1111,
            "type" : "VEC3"
        },
        {
            "bufferView" : 3,
            "componentType" : 5123,
            "count" : 3726,
            "type" : "SCALAR"
        }
    ],
    "bufferViews" : [
        {
            "buffer" : 0,
            "byteLength" : 13332,
            "byteOffset" : 0,
            "target" : 34962
        },
        {
            "buffer" : 0,
            "byteLength" : 8888,
            "byteOffset" : 13332,
            "target" : 34962
        },
        {
            "buffer" : 0,
            "byteLength" : 13332,
            "byteOffset" : 22220,
            "target" : 34962
        },
        {
            "buffer" : 0,
            "byteLength" : 7452,
            "byteOffset" : 35552,
            "target" : 34963
        }
    ],
    "buffers" : [
        {
            "byteLength" : 43004,
            "uri" : "Player.bin"
        }
    ]
}
