{
    "asset" : {
        "copyright" : "Iuri Cordeiro",
        "generator" : "Khronos glTF Blender I/O v3.4.49",
        "version" : "2.0"
    },
    "scene" : 0,
    "scenes" : [
        {
            "name" : "Scene",
            "nodes" : [
                1
            ]
        }
    ],
    "nodes" : [
        {
            "mesh" : 0,
            "name" : "Sphere.001"
        },
        {
            "children" : [
                0
            ],
            "mesh" : 1,
            "name" : "Sphere",
            "scale" : [
                0.21626128256320953,
                0.20533043146133423,
                0.21626128256320953
            ]
        }
    ],
    "animations" : [
        {
            "channels" : [
                {
                    "sampler" : 0,
                    "target" : {
                        "node" : 1,
                        "path" : "rotation"
                    }
                },
                {
                    "sampler" : 1,
                    "target" : {
                        "node" : 0,
                        "path" : "translation"
                    }
                },
                {
                    "sampler" : 2,
                    "target" : {
                        "node" : 0,
                        "path" : "rotation"
                    }
                },
                {
                    "sampler" : 3,
                    "target" : {
                        "node" : 0,
                        "path" : "scale"
                    }
                }
            ],
            "name" : "Animation",
            "samplers" : [
                {
                    "input" : 8,
                    "interpolation" : "LINEAR",
                    "output" : 9
                },
                {
                    "input" : 8,
                    "interpolation" : "LINEAR",
                    "output" : 10
                },
                {
                    "input" : 8,
                    "interpolation" : "LINEAR",
                    "output" : 11
                },
                {
                    "input" : 8,
                    "interpolation" : "LINEAR",
                    "output" : 12
                }
            ]
        }
    ],
    "materials" : [
        {
            "doubleSided" : true,
            "name" : "Material.002",
            "pbrMetallicRoughness" : {
                "baseColorFactor" : [
                    0.019665271043777466,
                    0.14731398224830627,
                    0.019401930272579193,
                    1
                ],
                "metallicFactor" : 0,
                "roughnessFactor" : 0.5
            }
        },
        {
            "doubleSided" : true,
            "name" : "Material.001",
            "pbrMetallicRoughness" : {
                "baseColorFactor" : [
                    0.7105541825294495,
                    0.2990998923778534,
                    0.06547469645738602,
                    1
                ],
                "metallicFactor" : 0,
                "roughnessFactor" : 0.5
            }
        }
    ],
    "meshes" : [
        {
            "name" : "Sphere.004",
            "primitives" : [
                {
                    "attributes" : {
                        "POSITION" : 0,
                        "TEXCOORD_0" : 1,
                        "NORMAL" : 2
                    },
                    "indices" : 3,
                    "material" : 0
                }
            ]
        },
        {
            "name" : "Sphere.003",
            "primitives" : [
                {
                    "attributes" : {
                        "POSITION" : 4,
                        "TEXCOORD_0" : 5,
                        "NORMAL" : 6
                    },
                    "indices" : 7,
                    "material" : 1
                }
            ]
        }
    ],
    "accessors" : [
        {
            "bufferView" : 0,
            "componentType" : 5126,
            "count" : 7657,
            "max" : [
                0.13433536887168884,
                1.1459970474243164,
                0.08926990628242493
            ],
            "min" : [
                -0.16624343395233154,
                0.5064632296562195,
                -0.11074362695217133
            ],
            "type" : "VEC3"
        },
        {
            "bufferView" : 1,
            "componentType" : 5126,
            "count" : 7657,
            "type" : "VEC2"
        },
        {
            "bufferView" : 2,
            "componentType" : 5126,
            "count" : 7657,
            "type" : "VEC3"
        },
        {
            "bufferView" : 3,
            "componentType" : 5123,
            "count" : 45408,
            "type" : "SCALAR"
        },
        {
            "bufferView" : 4,
            "componentType" : 5126,
            "count" : 3872,
            "max" : [
                0.8695484399795532,
                0.773947536945343,
                0.8340961337089539
            ],
            "min" : [
                -0.8209746479988098,
                -0.8021687269210815,
                -0.8427107334136963
            ],
            "type" : "VEC3"
        },
        {
            "bufferView" : 5,
            "componentType" : 5126,
            "count" : 3872,
            "type" : "VEC2"
        },
        {
            "bufferView" : 6,
            "componentType" : 5126,
            "count" : 3872,
            "type" : "VEC3"
        },
        {
            "bufferView" : 7,
            "componentType" : 5123,
            "count" : 17820,
            "type" : "SCALAR"
        },
        {
            "bufferView" : 8,
            "componentType" : 5126,
            "count" : 90,
            "max" : [
                3
            ],
            "min" : [
                0.03333333333333333
            ],
            "type" : "SCALAR"
        },
        {
            "bufferView" : 9,
            "componentType" : 5126,
            "count" : 90,
            "type" : "VEC4"
        },
        {
            "bufferView" : 10,
            "componentType" : 5126,
            "count" : 90,
            "type" : "VEC3"
        },
        {
            "bufferView" : 11,
            "componentType" : 5126,
            "count" : 90,
            "type" : "VEC4"
        },
        {
            "bufferView" : 12,
            "componentType" : 5126,
            "count" : 90,
            "type" : "VEC3"
        }
    ],
    "bufferViews" : [
        {
            "buffer" : 0,
            "byteLength" : 91884,
            "byteOffset" : 0,
            "target" : 34962
        },
        {
            "buffer" : 0,
            "byteLength" : 61256,
            "byteOffset" : 91884,
            "target" : 34962
        },
        {
            "buffer" : 0,
            "byteLength" : 91884,
            "byteOffset" : 153140,
            "target" : 34962
        },
        {
            "buffer" : 0,
            "byteLength" : 90816,
            "byteOffset" : 245024,
            "target" : 34963
        },
        {
            "buffer" : 0,
            "byteLength" : 46464,
            "byteOffset" : 335840,
            "target" : 34962
        },
        {
            "buffer" : 0,
            "byteLength" : 30976,
            "byteOffset" : 382304,
            "target" : 34962
        },
        {
            "buffer" : 0,
            "byteLength" : 46464,
            "byteOffset" : 413280,
            "target" : 34962
        },
        {
            "buffer" : 0,
            "byteLength" : 35640,
            "byteOffset" : 459744,
            "target" : 34963
        },
        {
            "buffer" : 0,
            "byteLength" : 360,
            "byteOffset" : 495384
        },
        {
            "buffer" : 0,
            "byteLength" : 1440,
            "byteOffset" : 495744
        },
        {
            "buffer" : 0,
            "byteLength" : 1080,
            "byteOffset" : 497184
        },
        {
            "buffer" : 0,
            "byteLength" : 1440,
            "byteOffset" : 498264
        },
        {
            "buffer" : 0,
            "byteLength" : 1080,
            "byteOffset" : 499704
        }
    ],
    "buffers" : [
        {
            "byteLength" : 500784,
            "uri" : "Abóbora.bin"
        }
    ]
}
