{
    "asset" : {
        "copyright" : "Iuri Cordeiro",
        "generator" : "Khronos glTF Blender I/O v3.4.49",
        "version" : "2.0"
    },
    "scene" : 0,
    "scenes" : [
        {
            "name" : "Scene",
            "nodes" : [
                0
            ]
        }
    ],
    "nodes" : [
        {
            "mesh" : 0,
            "name" : "Apple",
            "translation" : [
                0,
                0.8785364627838135,
                0
            ]
        }
    ],
    "animations" : [
        {
            "channels" : [
                {
                    "sampler" : 0,
                    "target" : {
                        "node" : 0,
                        "path" : "rotation"
                    }
                }
            ],
            "name" : "AppleAction",
            "samplers" : [
                {
                    "input" : 12,
                    "interpolation" : "LINEAR",
                    "output" : 13
                }
            ]
        }
    ],
    "materials" : [
        {
            "doubleSided" : true,
            "name" : "Material.003",
            "pbrMetallicRoughness" : {
                "baseColorFactor" : [
                    0.6738478541374207,
                    0.05454126372933388,
                    0.0253453366458416,
                    1
                ],
                "metallicFactor" : 0,
                "roughnessFactor" : 0.5
            }
        },
        {
            "doubleSided" : true,
            "name" : "Material.002",
            "pbrMetallicRoughness" : {
                "baseColorFactor" : [
                    0.33432328701019287,
                    0.02084912732243538,
                    0.00782434269785881,
                    1
                ],
                "metallicFactor" : 0,
                "roughnessFactor" : 0.5
            }
        },
        {
            "doubleSided" : true,
            "name" : "Material.001",
            "pbrMetallicRoughness" : {
                "baseColorFactor" : [
                    0.025292150676250458,
                    0.4109388589859009,
                    0,
                    1
                ],
                "metallicFactor" : 0,
                "roughnessFactor" : 0.5
            }
        }
    ],
    "meshes" : [
        {
            "name" : "Sphere",
            "primitives" : [
                {
                    "attributes" : {
                        "POSITION" : 0,
                        "TEXCOORD_0" : 1,
                        "NORMAL" : 2
                    },
                    "indices" : 3,
                    "material" : 0
                },
                {
                    "attributes" : {
                        "POSITION" : 4,
                        "TEXCOORD_0" : 5,
                        "NORMAL" : 6
                    },
                    "indices" : 7,
                    "material" : 1
                },
                {
                    "attributes" : {
                        "POSITION" : 8,
                        "TEXCOORD_0" : 9,
                        "NORMAL" : 10
                    },
                    "indices" : 11,
                    "material" : 2
                }
            ]
        }
    ],
    "accessors" : [
        {
            "bufferView" : 0,
            "componentType" : 5126,
            "count" : 9759,
            "max" : [
                0.9556928873062134,
                0.6160460114479065,
                0.9842921495437622
            ],
            "min" : [
                -0.9872305393218994,
                -0.877324640750885,
                -0.9842027425765991
            ],
            "type" : "VEC3"
        },
        {
            "bufferView" : 1,
            "componentType" : 5126,
            "count" : 9759,
            "type" : "VEC2"
        },
        {
            "bufferView" : 2,
            "componentType" : 5126,
            "count" : 9759,
            "type" : "VEC3"
        },
        {
            "bufferView" : 3,
            "componentType" : 5123,
            "count" : 52224,
            "type" : "SCALAR"
        },
        {
            "bufferView" : 4,
            "componentType" : 5126,
            "count" : 345,
            "max" : [
                0.21185295283794403,
                1.1598880290985107,
                0.04375521466135979
            ],
            "min" : [
                -0.06003212928771973,
                0.4234311282634735,
                -0.043755173683166504
            ],
            "type" : "VEC3"
        },
        {
            "bufferView" : 5,
            "componentType" : 5126,
            "count" : 345,
            "type" : "VEC2"
        },
        {
            "bufferView" : 6,
            "componentType" : 5126,
            "count" : 345,
            "type" : "VEC3"
        },
        {
            "bufferView" : 7,
            "componentType" : 5123,
            "count" : 1728,
            "type" : "SCALAR"
        },
        {
            "bufferView" : 8,
            "componentType" : 5126,
            "count" : 238,
            "max" : [
                0.018316205590963364,
                0.9886335730552673,
                0.23983310163021088
            ],
            "min" : [
                -1.1095614433288574,
                0.7646043300628662,
                -0.21946576237678528
            ],
            "type" : "VEC3"
        },
        {
            "bufferView" : 9,
            "componentType" : 5126,
            "count" : 238,
            "type" : "VEC2"
        },
        {
            "bufferView" : 10,
            "componentType" : 5126,
            "count" : 238,
            "type" : "VEC3"
        },
        {
            "bufferView" : 11,
            "componentType" : 5123,
            "count" : 1152,
            "type" : "SCALAR"
        },
        {
            "bufferView" : 12,
            "componentType" : 5126,
            "count" : 91,
            "max" : [
                3
            ],
            "min" : [
                0
            ],
            "type" : "SCALAR"
        },
        {
            "bufferView" : 13,
            "componentType" : 5126,
            "count" : 91,
            "type" : "VEC4"
        }
    ],
    "bufferViews" : [
        {
            "buffer" : 0,
            "byteLength" : 117108,
            "byteOffset" : 0,
            "target" : 34962
        },
        {
            "buffer" : 0,
            "byteLength" : 78072,
            "byteOffset" : 117108,
            "target" : 34962
        },
        {
            "buffer" : 0,
            "byteLength" : 117108,
            "byteOffset" : 195180,
            "target" : 34962
        },
        {
            "buffer" : 0,
            "byteLength" : 104448,
            "byteOffset" : 312288,
            "target" : 34963
        },
        {
            "buffer" : 0,
            "byteLength" : 4140,
            "byteOffset" : 416736,
            "target" : 34962
        },
        {
            "buffer" : 0,
            "byteLength" : 2760,
            "byteOffset" : 420876,
            "target" : 34962
        },
        {
            "buffer" : 0,
            "byteLength" : 4140,
            "byteOffset" : 423636,
            "target" : 34962
        },
        {
            "buffer" : 0,
            "byteLength" : 3456,
            "byteOffset" : 427776,
            "target" : 34963
        },
        {
            "buffer" : 0,
            "byteLength" : 2856,
            "byteOffset" : 431232,
            "target" : 34962
        },
        {
            "buffer" : 0,
            "byteLength" : 1904,
            "byteOffset" : 434088,
            "target" : 34962
        },
        {
            "buffer" : 0,
            "byteLength" : 2856,
            "byteOffset" : 435992,
            "target" : 34962
        },
        {
            "buffer" : 0,
            "byteLength" : 2304,
            "byteOffset" : 438848,
            "target" : 34963
        },
        {
            "buffer" : 0,
            "byteLength" : 364,
            "byteOffset" : 441152
        },
        {
            "buffer" : 0,
            "byteLength" : 1456,
            "byteOffset" : 441516
        }
    ],
    "buffers" : [
        {
            "byteLength" : 442972,
            "uri" : "Ma\u00e7\u00e3.bin"
        }
    ]
}
